<?xml version="1.0" encoding="utf-8"?>
<!-- Generator: Adobe Illustrator 23.1.0, SVG Export Plug-In . SVG Version: 6.00 Build 0)  -->
<svg version="1.1" id="Layer_1" xmlns="http://www.w3.org/2000/svg" xmlns:xlink="http://www.w3.org/1999/xlink" x="0px" y="0px"
	 viewBox="0 0 26 30.3" style="enable-background:new 0 0 26 30.3;" xml:space="preserve">
<path d="M0.4,8l12.6,0l12.6,0c0.1,0,0.2,0,0.3-0.1C25.9,7.9,26,7.8,26,7.7C26,6.2,24.8,5,23.3,5l-4.2,0l0-1.1c0-1.6-1.3-3-3-3
	l-6.2,0c-1.6,0-3,1.3-3,3l0,1.1l-4.2,0C1.2,4.9,0,6.1,0,7.6c0,0.1,0,0.2,0.1,0.3C0.2,8,0.3,8,0.4,8z M11.1,2.7l3.9,0
	c1.2,0,2.2,1,2.2,2.2l0,0l-4.2,0l-4.2,0l0,0C8.8,3.7,9.8,2.7,11.1,2.7z"/>
<path d="M25.6,9.1H13.1H0.5c-0.2,0-0.4,0.2-0.4,0.4v1.6c0,0.2,4.3,16.5,4.3,16.5c0.1,1.5,1.4,2.8,3,2.8H13h5.7c1.5,0,2.9-1.2,3-2.8
	c0,0,4.3-16.2,4.3-16.5V9.5C26,9.3,25.8,9.1,25.6,9.1z M8.9,26.4c-0.1,0-0.1,0-0.2,0c-0.3,0-0.6-0.2-0.7-0.5
	c-1.2-4.5-2.4-9.1-3.2-12.1C4.7,13.5,5,13.1,5.3,13c0.4-0.1,0.8,0.1,0.9,0.5c0.8,3,2,7.6,3.2,12.1C9.5,25.9,9.3,26.3,8.9,26.4z
	 M13.8,25.7c0,0.4-0.3,0.7-0.7,0.7s-0.7-0.3-0.7-0.7V13.7c0-0.4,0.3-0.7,0.7-0.7c0.4,0,0.7,0.3,0.7,0.7V25.7z M21.3,13.8
	c-0.8,3.2-2.2,8.1-3.2,12.1c-0.1,0.3-0.4,0.5-0.7,0.5c-0.1,0-0.1,0-0.2,0c-0.4-0.1-0.6-0.5-0.5-0.9c1.1-4,2.4-8.9,3.2-12.1
	c0.1-0.4,0.5-0.6,0.9-0.5C21.1,13.1,21.4,13.5,21.3,13.8z"/>
</svg>
