<svg version="1.1" id="Layer_1" xmlns="http://www.w3.org/2000/svg" xmlns:xlink="http://www.w3.org/1999/xlink" x="0px" y="0px"
	 viewBox="0 0 23.2 23" style="enable-background:new 0 0 23.2 23;" xml:space="preserve">
<style type="text/css">
	.st0{fill-rule:evenodd;clip-rule:evenodd;fill:#010101;}
</style>
<g>
	<g>
		<path class="st0" d="M6.1,9.3h2.3v7.9H6.1V9.3L6.1,9.3z M7.2,8.3L7.2,8.3C6.3,8.3,5.8,7.7,5.8,7c0-0.8,0.5-1.4,1.4-1.4
			C8,5.6,8.5,6.2,8.5,7C8.5,7.7,8,8.3,7.2,8.3L7.2,8.3L7.2,8.3z M17.4,17.2h-2.6v-4.1c0-1.1-0.4-1.8-1.3-1.8c-0.7,0-1,0.5-1.2,1
			c-0.1,0.2-0.1,0.4-0.1,0.6v4.3H9.7c0,0,0-7.2,0-7.9h2.5v1.2c0.1-0.5,1-1.3,2.3-1.3c1.6,0,2.9,1.1,2.9,3.6V17.2L17.4,17.2
			L17.4,17.2z M17.4,17.2"/>
	</g>
	<path class="st0" d="M11.6,1.9c3.1,0,3.5,0,4.7,0.1C17.4,2,18,2.2,18.4,2.4c0.5,0.2,0.9,0.5,1.3,0.9c0.4,0.4,0.7,0.8,0.9,1.3
		C20.8,5,21,5.6,21,6.7c0.1,1.2,0.1,1.6,0.1,4.7s0,3.5-0.1,4.7c-0.1,1.1-0.2,1.7-0.4,2.2c-0.2,0.5-0.5,0.9-0.9,1.3
		c-0.4,0.4-0.8,0.7-1.3,0.9c-0.4,0.2-1,0.3-2.2,0.4c-1.2,0.1-1.6,0.1-4.7,0.1c-3.1,0-3.5,0-4.7-0.1c-1.1-0.1-1.7-0.2-2.2-0.4
		c-0.5-0.2-0.9-0.5-1.3-0.9s-0.7-0.8-0.9-1.3c-0.2-0.4-0.3-1-0.4-2.2c-0.1-1.2-0.1-1.6-0.1-4.7s0-3.5,0.1-4.7C2.2,5.6,2.4,5,2.6,4.6
		C2.8,4,3,3.6,3.4,3.2c0.4-0.4,0.8-0.7,1.3-0.9C5.2,2.2,5.8,2,6.9,2C8.1,1.9,8.5,1.9,11.6,1.9 M11.6-0.2c-3.1,0-3.5,0-4.8,0.1
		C5.6-0.1,4.7,0.1,4,0.4C3.2,0.7,2.6,1.1,1.9,1.8C1.3,2.4,0.9,3,0.6,3.8C0.3,4.5,0.1,5.4,0.1,6.6C0,7.9,0,8.3,0,11.4
		c0,3.1,0,3.5,0.1,4.8c0.1,1.2,0.3,2.1,0.5,2.8c0.3,0.8,0.7,1.4,1.3,2.1c0.6,0.6,1.3,1,2.1,1.3c0.7,0.3,1.6,0.5,2.8,0.5
		C8,23,8.4,23,11.6,23s3.5,0,4.8-0.1c1.2-0.1,2.1-0.3,2.8-0.5c0.8-0.3,1.4-0.7,2.1-1.3c0.6-0.6,1-1.3,1.3-2.1
		c0.3-0.7,0.5-1.6,0.5-2.8c0.1-1.2,0.1-1.6,0.1-4.8c0-3.1,0-3.5-0.1-4.8c-0.1-1.2-0.3-2.1-0.5-2.8c-0.3-0.8-0.7-1.4-1.3-2.1
		c-0.6-0.6-1.3-1-2.1-1.3c-0.7-0.3-1.6-0.5-2.8-0.5C15.1-0.2,14.7-0.2,11.6-0.2L11.6-0.2z"/>
</g>
</svg>
