<?xml version="1.0" encoding="utf-8"?>
<!-- Generator: Adobe Illustrator 23.1.0, SVG Export Plug-In . SVG Version: 6.00 Build 0)  -->
<svg version="1.1" xmlns="http://www.w3.org/2000/svg" xmlns:xlink="http://www.w3.org/1999/xlink" x="0px" y="0px"
	 viewBox="0 0 26 32.5" style="enable-background:new 0 0 26 32.5;" xml:space="preserve">
<style type="text/css">
	.st0{display:none;}
	.st1{display:inline;}
</style>
<g id="Layer_1">
	<g>
		<path d="M0.6,5.4l12.3,2.4l12.3,2.4c0.1,0,0.2,0,0.3-0.1c0.1-0.1,0.2-0.2,0.2-0.3C26,8.4,25.1,7,23.6,6.7l-4.1-0.8l0.2-1.1
			c0.3-1.6-0.8-3.2-2.4-3.5l-6.1-1.2C9.6-0.2,8.1,0.9,7.7,2.5L7.5,3.6L3.4,2.7C1.9,2.4,0.5,3.4,0.2,4.9c0,0.1,0,0.2,0.1,0.3
			C0.4,5.3,0.4,5.4,0.6,5.4z M12,2.1l3.9,0.8c1.2,0.2,2,1.4,1.8,2.6l0,0l-4.1-0.8L9.4,3.9l0,0C9.6,2.7,10.8,1.9,12,2.1z"/>
		<path d="M25.6,11.2H13.1H0.5c-0.2,0-0.4,0.2-0.4,0.4v1.6c0,0.2,4.3,16.5,4.3,16.5c0.1,1.5,1.4,2.8,3,2.8H13h5.7
			c1.5,0,2.9-1.2,3-2.8c0,0,4.3-16.2,4.3-16.5v-1.6C26,11.4,25.8,11.2,25.6,11.2z M8.9,28.5c-0.1,0-0.1,0-0.2,0
			c-0.3,0-0.6-0.2-0.7-0.5C6.9,23.5,5.6,19,4.8,16c-0.1-0.4,0.1-0.8,0.5-0.9s0.8,0.1,0.9,0.5c0.8,3,2,7.6,3.2,12.1
			C9.5,28,9.3,28.4,8.9,28.5z M13.8,27.8c0,0.4-0.3,0.7-0.7,0.7s-0.7-0.3-0.7-0.7V15.8c0-0.4,0.3-0.7,0.7-0.7c0.4,0,0.7,0.3,0.7,0.7
			V27.8z M21.3,16c-0.8,3.2-2.2,8.1-3.2,12.1c-0.1,0.3-0.4,0.5-0.7,0.5c-0.1,0-0.1,0-0.2,0c-0.4-0.1-0.6-0.5-0.5-0.9
			c1.1-4,2.4-8.9,3.2-12.1c0.1-0.4,0.5-0.6,0.9-0.5C21.1,15.2,21.4,15.6,21.3,16z"/>
	</g>
</g>
<g id="Layer_2" class="st0">
	<path class="st1" d="M0.5,10.1l12.6,0l12.6,0c0.1,0,0.2,0,0.3-0.1C25.9,10,26,9.9,26,9.8c0-1.5-1.2-2.7-2.7-2.7l-4.2,0l0-1.1
		c0-1.6-1.3-3-3-3l-6.2,0c-1.6,0-3,1.3-3,3l0,1.1L2.8,7C1.2,7,0,8.2,0,9.7c0,0.1,0,0.2,0.1,0.3C0.2,10.1,0.3,10.1,0.5,10.1z
		 M11.1,4.8l3.9,0c1.2,0,2.2,1,2.2,2.2l0,0L13,7L8.8,7l0,0C8.8,5.8,9.8,4.8,11.1,4.8z"/>
	<path class="st1" d="M25.6,11.2H13.1H0.5c-0.2,0-0.4,0.2-0.4,0.4v1.6c0,0.2,4.3,16.5,4.3,16.5c0.1,1.5,1.4,2.8,3,2.8H13h5.7
		c1.5,0,2.9-1.2,3-2.8c0,0,4.3-16.2,4.3-16.5v-1.6C26,11.4,25.8,11.2,25.6,11.2z M8.9,28.5c-0.1,0-0.1,0-0.2,0
		c-0.3,0-0.6-0.2-0.7-0.5C6.9,23.5,5.6,19,4.8,16c-0.1-0.4,0.1-0.8,0.5-0.9s0.8,0.1,0.9,0.5c0.8,3,2,7.6,3.2,12.1
		C9.5,28,9.3,28.4,8.9,28.5z M13.8,27.8c0,0.4-0.3,0.7-0.7,0.7s-0.7-0.3-0.7-0.7V15.8c0-0.4,0.3-0.7,0.7-0.7c0.4,0,0.7,0.3,0.7,0.7
		V27.8z M21.3,16c-0.8,3.2-2.2,8.1-3.2,12.1c-0.1,0.3-0.4,0.5-0.7,0.5c-0.1,0-0.1,0-0.2,0c-0.4-0.1-0.6-0.5-0.5-0.9
		c1.1-4,2.4-8.9,3.2-12.1c0.1-0.4,0.5-0.6,0.9-0.5C21.1,15.2,21.4,15.6,21.3,16z"/>
</g>
</svg>
