<?xml version="1.0" encoding="utf-8"?>
<!-- Generator: Adobe Illustrator 23.1.1, SVG Export Plug-In . SVG Version: 6.00 Build 0)  -->
<svg version="1.1" id="Layer_1" xmlns="http://www.w3.org/2000/svg" xmlns:xlink="http://www.w3.org/1999/xlink" x="0px" y="0px"
	 viewBox="0 0 60 60" style="enable-background:new 0 0 60 60;" xml:space="preserve">
<title>Artboard 4</title>
<g id="Aussie">
	<path d="M30,60C13.4,60,0,46.6,0,30S13.4,0,30,0s30,13.4,30,30S46.6,60,30,60z M30,1.3C14.2,1.3,1.3,14.2,1.3,30S14.2,58.7,30,58.7
		S58.7,45.8,58.7,30c0,0,0,0,0,0C58.7,14.2,45.8,1.3,30,1.3z"/>
	<path d="M44,21.1c0.1,0.9,0,1.8-0.3,2.7c-0.6,2.3-1.7,4.4-3.2,6.2c-0.8,1-2.1,1.6-3.4,1.7c-1.2,0.1-2.4-0.3-3.4-1
		c-0.7-0.5-1.3-1.1-1.9-1.6l-0.7-0.7c-0.2-0.2-0.5-0.5-0.7-0.7c-1-1.1-2.7-1.5-4.1-0.8c-1.4,0.5-2.7,1.3-3.9,2.2
		c-0.6,0.5-1.3,0.9-2,1.3c-0.5,0.3-1,0.4-1.6,0.3c-0.5-0.2-1-0.6-1.2-1.1c-1-1.9-2-3.9-2.8-5.7c-0.2-0.5-0.4-1-0.6-1.5
		c0-0.1-0.1-0.3-0.1-0.4c-0.3-0.9-0.1-2,0.6-2.7l2-2.1l5-5.3c0.6-0.8,1.7-0.9,2.5-0.3c0,0,0,0,0,0c0.3,0.2,0.5,0.3,0.8,0.5
		c0.2-0.3,0.5-0.6,0.7-0.9c0.3-0.5,0.6-1,0.8-1.5c0.3-0.7,1-1.2,1.7-1.2c1-0.1,2,0,3,0.3c0.2,0.1,0.4,0.2,0.5,0.4
		c0.1,0.2,0.1,0.4,0,0.6l-0.2,0.5c-0.1,0.4-0.3,0.7-0.4,1c-0.1,0.2-0.1,0.4,0.1,0.5c0.7,0.8,1.5,1.4,2.5,1.8
		c0.3,0.1,0.4,0.1,0.4,0.1s0.1-0.1,0.1-0.4s-0.1-0.7-0.1-1.1s-0.1-0.6-0.1-1c-0.1-0.7-0.1-1.4,0-2.1c0-0.5,0.3-1,0.8-1.2
		c0.5-0.2,1,0,1.3,0.4c0.4,0.4,0.8,0.8,1.1,1.3l2,3c1.2,1.7,2.3,3.5,3.5,5.2C43.5,18.6,43.9,19.8,44,21.1"/>
	<path d="M42.1,31.8c0.3,0.3,0.5,0.6,0.5,1c0,0.9-0.3,1.8-0.9,2.5c-0.3,0.3-0.6,0.5-1,0.5c-0.6,0-1.2-0.3-1.5-0.8
		c-0.3-0.4-0.5-0.8-0.7-1.2l-0.3-0.4c-0.2-0.3-0.2-0.7,0-1.1c0.2-0.3,0.5-0.6,0.9-0.6l0.6-0.1l1.2-0.2H41
		C41.4,31.4,41.8,31.5,42.1,31.8"/>
	<path d="M20.1,43l-0.3,1.5H19l1.5-7.6h1.2l1.5,7.6h-0.8L22,43H20.1z M20.2,42.3h1.7l-0.9-4.4L20.2,42.3z"/>
	<path d="M24.7,42.8c0,0.7,0.3,1.1,0.9,1.1s0.9-0.4,0.9-1.1V37h0.8v5.8c0,1.2-0.5,1.9-1.7,1.9s-1.7-0.8-1.7-1.9V37h0.8L24.7,42.8z"
		/>
	<path d="M31.4,38.8V39h-0.8v-0.2c0-0.7-0.3-1.1-0.9-1.1s-0.9,0.4-0.9,1.1c0,1.7,2.5,1.9,2.5,4c0,1.2-0.5,1.9-1.7,1.9
		s-1.7-0.8-1.7-1.9v-0.4h0.8v0.5c0,0.7,0.3,1.1,0.9,1.1s0.9-0.4,0.9-1.1c0-1.7-2.5-1.9-2.5-4c0-1.2,0.5-1.9,1.7-1.9
		S31.4,37.6,31.4,38.8z"/>
	<path d="M35.4,38.8V39h-0.8v-0.2c0-0.7-0.3-1.1-0.9-1.1s-0.9,0.4-0.9,1.1c0,1.7,2.6,1.9,2.6,4c0,1.2-0.6,1.9-1.7,1.9
		S32,43.9,32,42.7v-0.4h0.8v0.5c0,0.7,0.3,1.1,0.9,1.1s0.9-0.4,0.9-1.1c0-1.7-2.5-1.9-2.5-4c0-1.2,0.5-1.9,1.7-1.9
		S35.4,37.6,35.4,38.8z"/>
	<path d="M37,37v7.6h-0.8V37H37z"/>
	<path d="M40.6,40.3v0.8h-1.9v2.7H41v0.8h-3.1V37H41v0.8h-2.3v2.6L40.6,40.3z"/>
</g>
</svg>
