<svg id="Layer_1" data-name="Layer 1" xmlns="http://www.w3.org/2000/svg" viewBox="0 0 748 710"><defs><style>.cls-1{font-size:100.06px;font-family:Europa-RegularItalic, Europa-Regular;font-style:italic;}</style></defs><path d="M546.83,284.94a63.37,63.37,0,0,0-1.47-9.21c-5-21-19.46-35.21-33.45-49-9.53-9.37-18.54-18.22-23.74-28.5-3.59-7.08-5.6-15.35-7.73-24.11-2.33-9.56-4.73-19.44-9.43-29-2.71-5.52-8.48-11.41-16.58-11.41a15.66,15.66,0,0,0-9.2,3c-6,4.3-6.69,10.79-6.93,12.92L437,161.9l-1.36,12.28c-.37,3.34-1.49,13.48-4.78,15.5-.5.31-1.76.82-4.56.82a33.05,33.05,0,0,1-3.84-.25,62.91,62.91,0,0,1-19.6-5.59c-4-1.9-6.58-3.72-7.84-5.56a3.78,3.78,0,0,1-.62-1.61c.3-.42.78-1,1.15-1.46a34.72,34.72,0,0,0,4.63-6.95,18.54,18.54,0,0,0,.39-15.62c-1.91-4.32-7.17-11.57-21-11.57h-.2c-8.45,0-17,.31-25.45.83-3.8.23-10.88.66-16.93,5.41-7.2,5.66-8.67,13.62-9.64,18.89a31.13,31.13,0,0,1-.89,4,1.77,1.77,0,0,1-.82.27c-.37-.23-.94-.63-1.42-1-2.89-2-7.74-5.42-14.49-5.42H309c-8.39.28-14,5.85-15.85,7.68-9.21,9.13-14.74,20-20.09,30.48-1.18,2.3-2.29,4.48-3.44,6.64-6.77,12.74-13,19.75-20.09,22.76a62.87,62.87,0,0,1-10.78,2.91c-8.63,1.85-19.38,4.14-27.62,12.58-6.2,6.37-9.61,14.72-10.15,24.84a72.47,72.47,0,0,0,2.91,22.7c3.25,11.79,8.07,22.35,12.74,32.57l1.43,3.14c2.81,6.2,6.5,10.84,9.76,14.93a66.35,66.35,0,0,1,5.29,7.29c2.29,3.86,3.24,9,4.34,14.9.28,1.51.57,3.06.89,4.64l1.74,8.58,8.55,1.87a35.77,35.77,0,0,0,7.55.8c11.2,0,21.27-5.21,27.87-9.14,6.86-4.07,13.34-8.58,19.61-12.94,10.36-7.22,20.15-14,30.8-18.41a54.05,54.05,0,0,1,20-4.07c6.63,0,15.81,1.43,21.88,8.24l1.4,1.61c4.49,5.2,11.27,13.06,22,13.06a20.71,20.71,0,0,0,5.47-.73,21.71,21.71,0,0,0,3.21-1.15c.56,1,1.24,2.25,2.07,4a74.45,74.45,0,0,0,18.07,23.73c4.89,4.25,12.65,9.33,21.88,9.33a23.91,23.91,0,0,0,8.84-1.68,31.92,31.92,0,0,0,7-4c.42-.3,1-.69,1.3-.9h0c1.63,0,4.7,1,7.42,1.87,4.55,1.47,9.7,3.14,15.44,3.14a25.4,25.4,0,0,0,13-3.41c8.69-5,11.91-13.91,14-19.79l.29-.81c2.9-7.95,6.84-15.64,11-23.77,3-5.85,6.1-11.9,8.86-18.19C545,313.46,548,298.66,546.83,284.94Zm-21.47,39.84c-6.34,14.44-14.77,27.94-20.18,42.75-1.87,5.13-3.73,10.86-8.45,13.6a12.13,12.13,0,0,1-6.22,1.58c-7.28,0-15.42-5-22.85-5a13,13,0,0,0-5.53,1.14c-2.75,1.26-4.92,3.59-7.73,4.7a10.36,10.36,0,0,1-3.89.73c-4.66,0-9.39-2.83-13.06-6a60.67,60.67,0,0,1-14.78-19.41c-2.78-5.78-6.76-13.21-12.59-13.21a7.42,7.42,0,0,0-1.83.24c-2.31.6-4.18,2.37-6.49,3a7,7,0,0,1-1.95.27c-5.31,0-9.56-5.87-13.4-10.17-8-9-19.74-12.74-31.91-12.74a67.2,67.2,0,0,0-25.14,5.07c-18.93,7.78-34.55,21.78-52.16,32.24-6.43,3.82-13.69,7.25-21,7.25a21.9,21.9,0,0,1-4.68-.5c-1.64-8.1-2.55-16.49-6.82-23.7C240.2,339,234,333.84,230.3,325.65c-5.07-11.15-10.17-21.84-13.45-33.72s-4.58-25.88,3.91-34.59,22.74-7.74,34-12.5c12.31-5.19,20.44-17,26.72-28.82s11.63-24.48,21.12-33.89c1.9-1.88,4.18-3.7,6.85-3.79h.21c3.64,0,6.48,3.13,9.71,4.88a12.86,12.86,0,0,0,6.15,1.5c5.28,0,10.66-2.93,12.93-7.76,2.82-6,1.57-14.17,6.77-18.25,2.61-2,6.14-2.37,9.45-2.57q12.33-.76,24.69-.81h.14c3.35,0,7.37.51,8.72,3.56,1.86,4.22-3.14,8-5.56,11.91-2.95,4.78-2,11.24,1.2,15.88s8.13,7.74,13.21,10.14a76.79,76.79,0,0,0,23.79,6.79,48.11,48.11,0,0,0,5.38.34,21.85,21.85,0,0,0,11.59-2.81c8.19-5,10.05-15.92,11.1-25.47q1.37-12.28,2.72-24.57c.14-1.29.37-2.73,1.42-3.49a2.26,2.26,0,0,1,1.35-.44c1.77,0,3.61,2,4.51,3.88,8.24,16.8,8.79,36.6,17.24,53.3,14.21,28,48.84,43.92,56.11,74.49a48.6,48.6,0,0,1,1.15,7.25C534.56,299.19,530.71,312.6,525.36,324.78Z"/><path d="M484.07,407.07c-1,0-1.87,0-2.75.07-.71,0-1.38.05-1.95.05-.32,0-1.16-.09-1.78-.15-1.76-.17-4-.37-6.3-.37-2.55,0-10.32,0-15.86,5.89a16.93,16.93,0,0,0-4.5,12.8c.89,14.55,12.31,25.53,26.57,25.53,12.46,0,22.54-8.48,25.07-21.11,1.32-6.57.21-12.07-3.3-16.36C494.07,407.07,486.54,407.07,484.07,407.07Zm5.33,20.07c-1.41,7-6.6,10.31-11.9,10.31-6.25,0-12.65-4.57-13.16-12.91-.22-3.63,3.19-4.44,7-4.44,3,0,6.25.52,8,.52h.05c1.63,0,3.25-.12,4.72-.12C487.87,420.5,490.57,421.31,489.4,427.14Z"/><path d="M374,692.27C178.06,692.27,18.68,541,18.68,355S178.06,17.76,374,17.76,729.32,169,729.32,355,569.9,692.27,374,692.27M374,0C167.77,0,0,159.24,0,355S167.77,710,374,710,748,550.76,748,355,580.23,0,374,0"/><text class="cls-1" transform="translate(231.37 552.11)">Aussie</text></svg>