<svg id="Layer_1" data-name="Layer 1" xmlns="http://www.w3.org/2000/svg" viewBox="0 0 748 710"><defs><style>.cls-1{font-size:100.06px;font-family:Europa-RegularItalic, Europa-Regular;font-style:italic;}.cls-2{letter-spacing:-0.02em;}</style></defs><path d="M439.72,224.16c-30.72-10.66-61.53-39.6-62.54-58.92-.32-6.34,2.81-10.76,9.86-13.89,17.37-7.7,42.74,20.15,51,31.55l.18.15a143.24,143.24,0,0,0,5.92,39.87C442.83,223.24,441.32,223.66,439.72,224.16Zm-204,50.35c-11.57-6.14-18.41-18.21-17.1-30.86a31.28,31.28,0,0,1,12.09-21.57A34.8,34.8,0,0,1,255.29,215c13.55,1.26,24.82,10.22,28.8,22.31C264.5,245.82,247.77,258.67,235.68,274.51Zm255.58-47.12c5-12,16-40.74,18.53-67.85,1.51-15.84-4.07-29.21-15.27-36.69a34.37,34.37,0,0,0-32.64-2.79c-12.44,5.48-20.43,17.69-21.94,33.51l-.24,2.61c-.23,2.4-.47,5-.69,7.77-12.86-13.94-35.88-33.5-57.52-23.88-11.79,5.26-18,14.39-17.39,25.78,1.21,23.42,30,51,59.21,65A62.5,62.5,0,0,0,407.13,243a137.39,137.39,0,0,0-67.43-17.3,139.77,139.77,0,0,0-43.43,6.94c-5.79-16.31-21.26-28.33-39.72-30a48.07,48.07,0,0,0-34.19,9.9,43.38,43.38,0,0,0-16.83,29.95c-1.78,17.37,7.45,33.92,23.12,42.56a98.18,98.18,0,0,0-14.07,50.28c0,33.43,17.13,64.62,47,85.56a6.82,6.82,0,0,0,3.9,1.21h75a22.16,22.16,0,0,0,18.5-9.74c16.9-.2,28.62-4.52,35.46-8.15l.61,1.73c3.53,9.67,13.15,16.16,23.94,16.16h61.33c12.09,0,22-9.35,22-20.82,0-19.79-17-35.9-37.82-35.9h-10a6.23,6.23,0,1,0,0,12.44h10c13.64,0,24.72,10.51,24.72,23.46a8.65,8.65,0,0,1-8.88,8.41H419a12.18,12.18,0,0,1-11.55-7.82l-11.3-31.06a6.65,6.65,0,0,0-8.31-3.85,6.18,6.18,0,0,0-4.08,7.92l6.35,17.42c-4.1,2.56-13.16,6.81-27.81,7.52-.77-17-14.29-31.55-32.22-34a6.45,6.45,0,0,0-7.4,5.25,6.26,6.26,0,0,0,5.52,7c12.07,1.67,21.15,11.64,21.15,23.19a8.66,8.66,0,0,1-8.86,8.41H267.65c-25.43-18.55-40-45.54-40-74.36,0-53.59,50.25-97.16,112-97.16A123,123,0,0,1,405,256.38a6.75,6.75,0,0,0,8.95-1.63c12.76-17.22,39.26-21,39.5-21a6.61,6.61,0,0,0,4.67-2.89,6,6,0,0,0,.64-5.25c-9.95-28.08-7.6-52.26-6-68.27l.27-2.62c1.09-11.47,6.2-19.76,14.39-23.36A20.67,20.67,0,0,1,487,133c7.38,4.93,10.86,14,9.77,25.41-3.08,32.61-19.81,69.35-20,69.72a5.89,5.89,0,0,0,0,5,6.55,6.55,0,0,0,3.88,3.38c1.72.56,42.43,14.33,42.21,57.7-.17,38.57-58,45.23-69.57,46.19a6.28,6.28,0,0,0-5.95,6.71,6.37,6.37,0,0,0,7.08,5.65c13.57-1.11,81.3-9.13,81.54-58.47C536.19,253.17,505,233.9,491.26,227.39Z"/><path d="M374,692.27C178.06,692.27,18.68,541,18.68,355S178.06,17.76,374,17.76,729.32,169,729.32,355,569.9,692.27,374,692.27M374,0C167.77,0,0,159.24,0,355S167.77,710,374,710,748,550.76,748,355,580.23,0,374,0"/><text class="cls-1" transform="translate(106.3 552.11)">Cruelty F<tspan class="cls-2" x="397.42" y="0">r</tspan><tspan x="429.84" y="0">ee</tspan></text></svg>