<?xml version="1.0" encoding="utf-8"?>
<!-- Generator: Adobe Illustrator 23.1.1, SVG Export Plug-In . SVG Version: 6.00 Build 0)  -->
<svg version="1.1" id="Layer_1" xmlns="http://www.w3.org/2000/svg" xmlns:xlink="http://www.w3.org/1999/xlink" x="0px" y="0px"
	 viewBox="0 0 60 60" style="enable-background:new 0 0 60 60;" xml:space="preserve">
<title>Artboard 2</title>
<g id="Cruelty_free">
	<path d="M30,60C13.4,60,0,46.6,0,30S13.4,0,30,0s30,13.4,30,30S46.6,60,30,60z M30,1.3C14.2,1.3,1.3,14.2,1.3,30S14.2,58.7,30,58.7
		S58.7,45.8,58.7,30c0,0,0,0,0,0C58.7,14.2,45.8,1.3,30,1.3z"/>
	<path d="M34.1,17.9c-0.8-0.7-1.5-1.4-2.2-2.1c-1.2-1.1-2.6-1.9-4.1-2.3c-0.5-0.2-1.1-0.2-1.6,0c-0.6,0.2-1,0.8-0.8,1.4
		c0,0.1,0,0.1,0.1,0.2c0.3,0.7,0.9,1.3,1.5,1.8c1.7,1.3,3.5,2.3,5.5,3l0.6,0.2l-0.4,1.5h0c-1.5-1-3.4-1.5-5.2-1.4
		c-1.2,0-2.4,0.3-3.4,0.9c-1.2,0.8-2.1,2.1-2.4,3.5c-0.2,0.8-0.3,1.6-0.4,2.4c-0.3,0-0.7,0-1,0c-1.6,0.1-2.9,1.3-3.1,2.9
		c-0.3,1.5,0.3,3,1.5,3.8c0.5,0.3,1.1,0.5,1.6,0.5l5.8-0.1h11.1c0.3,0,0.6,0,0.9,0c0.1,0,0.3-0.1,0.4-0.1c-0.1-0.1-0.1-0.2-0.2-0.3
		c-0.4-0.2-0.8-0.5-1.2-0.7L36.7,33c1.4-2,1.6-4.3,1.7-6.6c0.2,0,0.5-0.1,0.7-0.2c1.3-0.4,2.5-1.2,3.3-2.3c0.9-1.1,0.9-2.8,0-3.9
		c-1.3-1.7-3.4-2.6-5.5-2.5h-0.2c-0.1-0.5-0.2-1.1-0.3-1.6c-0.2-1.3-0.7-2.6-1.3-3.8c-0.3-0.6-0.8-1.1-1.3-1.5
		c-0.3-0.2-0.6-0.3-1-0.3c-0.6,0-1,0.5-1,1.1c-0.1,1.1,0.1,2.1,0.6,3.1c0.5,1.1,1.1,2.1,1.6,3.1C33.9,17.7,34,17.8,34.1,17.9
		L34.1,17.9z"/>
	<path d="M11,38.8v0.7h-0.8v-0.7c0-0.7-0.3-1.1-0.9-1.1s-0.9,0.4-0.9,1.1v4c0,0.7,0.3,1.1,0.9,1.1s0.9-0.4,0.9-1.1v-1H11v0.9
		c0,1.2-0.5,1.9-1.7,1.9s-1.7-0.8-1.7-1.9v-3.9c0-1.2,0.6-1.9,1.7-1.9S11,37.6,11,38.8z"/>
	<path d="M13.5,37c1.2,0,1.7,0.6,1.7,1.7v0.6c0,0.8-0.3,1.4-0.9,1.6c0.7,0.2,0.9,0.8,0.9,1.6v1.2c0,0.3,0,0.6,0.2,0.9h-0.9
		c-0.1-0.3-0.2-0.6-0.1-0.9v-1.2c0-0.9-0.4-1.1-1.1-1.1h-0.6v3.2h-0.8V37H13.5z M13.3,40.6c0.7,0,1.1-0.2,1.1-1v-0.7
		c0-0.7-0.3-1-0.9-1h-0.8v2.8L13.3,40.6z"/>
	<path d="M16.9,42.8c0,0.7,0.3,1.1,0.9,1.1s0.9-0.4,0.9-1.1V37h0.8v5.8c0,1.2-0.5,1.9-1.7,1.9S16,43.9,16,42.8V37h0.8V42.8z"/>
	<path d="M23,40.3v0.8h-1.9v2.7h2.3v0.8h-3.1V37h3.1v0.8h-2.3v2.6L23,40.3z"/>
	<path d="M24.2,44.6V37h0.9v6.8h2.2v0.8L24.2,44.6z"/>
	<path d="M28.5,44.6v-6.9H27V37h3.6v0.8h-1.4v6.8L28.5,44.6z"/>
	<path d="M32.6,41.8L31,37h0.9l1.2,3.8l1.2-3.8h0.8l-1.6,4.9v2.7h-0.8L32.6,41.8z"/>
	<path d="M40,40.5v0.8h-1.8v3.3h-0.8V37h3v0.8h-2.2v2.8L40,40.5z"/>
	<path d="M42.8,37c1.2,0,1.7,0.6,1.7,1.7v0.6c0,0.8-0.3,1.4-1,1.6c0.7,0.2,1,0.8,1,1.6v1.2c0,0.3,0,0.6,0.2,0.9h-0.9
		c-0.1-0.3-0.2-0.6-0.1-0.9v-1.2c0-0.9-0.4-1.1-1.1-1.1H42v3.2h-0.8V37H42.8z M42.6,40.6c0.7,0,1.1-0.2,1.1-1v-0.7
		c0-0.7-0.2-1-0.9-1h-0.8v2.8L42.6,40.6z"/>
	<path d="M48.1,40.3v0.8h-1.9v2.7h2.3v0.8h-3.1V37h3.1v0.8h-2.3v2.6L48.1,40.3z"/>
	<path d="M52,40.3v0.8h-1.9v2.7h2.3v0.8h-3.1V37h3.1v0.8h-2.3v2.6L52,40.3z"/>
</g>
</svg>
