<svg version="1.1" id="Layer_1" xmlns="http://www.w3.org/2000/svg" xmlns:xlink="http://www.w3.org/1999/xlink" x="0px" y="0px"
	 viewBox="0 0 23.2 23" style="enable-background:new 0 0 23.2 23;" xml:space="preserve">
<style type="text/css">
	.st0{fill-rule:evenodd;clip-rule:evenodd;fill:#010101;}
</style>
<g>
	<path class="st0" d="M12.5,17.1h-2.4v-5.8H8.8v-2h1.2V8.2c0-1.6,0.7-2.6,2.6-2.6h1.6v2h-1c-0.8,0-0.8,0.3-0.8,0.8l0,1h1.8l-0.2,2
		h-1.6L12.5,17.1L12.5,17.1L12.5,17.1z M12.5,17.1"/>
	<g>
		<path class="st0" d="M11.6,1.9c3.1,0,3.5,0,4.7,0.1C17.4,2,18,2.2,18.4,2.4c0.5,0.2,0.9,0.5,1.3,0.9c0.4,0.4,0.7,0.8,0.9,1.3
			C20.8,5,21,5.6,21,6.7c0.1,1.2,0.1,1.6,0.1,4.7s0,3.5-0.1,4.7c-0.1,1.1-0.2,1.7-0.4,2.2c-0.2,0.5-0.5,0.9-0.9,1.3
			c-0.4,0.4-0.8,0.7-1.3,0.9c-0.4,0.2-1,0.3-2.2,0.4c-1.2,0.1-1.6,0.1-4.7,0.1c-3.1,0-3.5,0-4.7-0.1c-1.1-0.1-1.7-0.2-2.2-0.4
			c-0.5-0.2-0.9-0.5-1.3-0.9s-0.7-0.8-0.9-1.3c-0.2-0.4-0.3-1-0.4-2.2c-0.1-1.2-0.1-1.6-0.1-4.7s0-3.5,0.1-4.7
			C2.2,5.6,2.4,5,2.6,4.6C2.8,4,3,3.6,3.4,3.2c0.4-0.4,0.8-0.7,1.3-0.9C5.2,2.2,5.8,2,6.9,2C8.1,1.9,8.5,1.9,11.6,1.9 M11.6-0.2
			c-3.1,0-3.5,0-4.8,0.1C5.6-0.1,4.7,0.1,4,0.4C3.2,0.7,2.6,1.1,1.9,1.8C1.3,2.4,0.9,3,0.6,3.8C0.3,4.5,0.1,5.4,0.1,6.6
			C0,7.9,0,8.3,0,11.4c0,3.1,0,3.5,0.1,4.8c0.1,1.2,0.3,2.1,0.5,2.8c0.3,0.8,0.7,1.4,1.3,2.1c0.6,0.6,1.3,1,2.1,1.3
			c0.7,0.3,1.6,0.5,2.8,0.5C8,23,8.4,23,11.6,23s3.5,0,4.8-0.1c1.2-0.1,2.1-0.3,2.8-0.5c0.8-0.3,1.4-0.7,2.1-1.3
			c0.6-0.6,1-1.3,1.3-2.1c0.3-0.7,0.5-1.6,0.5-2.8c0.1-1.2,0.1-1.6,0.1-4.8c0-3.1,0-3.5-0.1-4.8c-0.1-1.2-0.3-2.1-0.5-2.8
			c-0.3-0.8-0.7-1.4-1.3-2.1c-0.6-0.6-1.3-1-2.1-1.3c-0.7-0.3-1.6-0.5-2.8-0.5C15.1-0.2,14.7-0.2,11.6-0.2L11.6-0.2z"/>
	</g>
</g>
</svg>
