<svg id="Layer_1" data-name="Layer 1" xmlns="http://www.w3.org/2000/svg" viewBox="0 0 80.87 77.67"><defs><style>.cls-1{fill:#010101;}</style></defs><title>Artboard 1</title><path class="cls-1" d="M.69,31.34c.6.05,1.3.05,1.9.05,1.75,0,3.15-.65,3.15-3.35V1.33h5.5V27.64c0,7-3.75,8.8-7.9,8.8a22.61,22.61,0,0,1-2.65-.1Z"/><path class="cls-1" d="M20.24,1.33v27c0,2.5,1.1,3.4,2.85,3.4s2.85-.9,2.85-3.4v-27h5.2V28c0,5.6-2.8,8.8-8.2,8.8s-8.2-3.2-8.2-8.8V1.33Z"/><path class="cls-1" d="M42.29.93c5.35,0,8.1,3.2,8.1,8.8v1.1h-5.2V9.38c0-2.5-1-3.45-2.75-3.45s-2.75,1-2.75,3.45c0,7.21,10.75,8.55,10.75,18.56,0,5.6-2.8,8.8-8.2,8.8s-8.2-3.2-8.2-8.8V25.79h5.2v2.5c0,2.5,1.1,3.4,2.85,3.4s2.85-.9,2.85-3.4c0-7.2-10.75-8.56-10.75-18.56C34.19,4.13,36.94.93,42.29.93Z"/><path class="cls-1" d="M52,1.33H69v5H63.24v30h-5.5v-30H52Z"/><path class="cls-1" d="M.69,42.27h8.7c5.5,0,8.2,3,8.2,8.65v17.7c0,5.6-2.7,8.65-8.2,8.65H.69Zm5.5,5v25h3.1c1.75,0,2.8-.9,2.8-3.4V50.67c0-2.5-1.05-3.4-2.8-3.4Z"/><path class="cls-1" d="M40.42,77.27H34.87l-.95-6.35H27.17l-1,6.35h-5l5.6-35h8.05ZM27.87,66.17h5.3l-2.65-17.7Z"/><path class="cls-1" d="M52.5,41.87c5.35,0,8.1,3.2,8.1,8.8v1.1H55.4V50.32c0-2.5-1-3.45-2.75-3.45s-2.75,1-2.75,3.45c0,7.2,10.75,8.55,10.75,18.55,0,5.6-2.8,8.8-8.2,8.8s-8.2-3.2-8.2-8.8V66.72h5.2v2.5c0,2.5,1.1,3.4,2.85,3.4s2.85-.9,2.85-3.4c0-7.2-10.75-8.55-10.75-18.55C44.4,45.07,47.15,41.87,52.5,41.87Z"/><path class="cls-1" d="M70.93,77.27h-5.5v-35h5.5v15h6.25v-15h5.6v35h-5.6v-15H70.93Z"/><path class="cls-1" d="M80.87,33.05H77.19l-.63-4.21H72.08l-.63,4.21H68.09L71.81,9.82h5.34Zm-8.33-7.36h3.52L74.3,13.94Z"/><path class="cls-1" d="M66.19,36.36H82.78V39H66.19Z"/></svg>