<?xml version="1.0" encoding="utf-8"?>
<!-- Generator: Adobe Illustrator 23.1.1, SVG Export Plug-In . SVG Version: 6.00 Build 0)  -->
<svg version="1.1" id="Layer_1" xmlns="http://www.w3.org/2000/svg" xmlns:xlink="http://www.w3.org/1999/xlink" x="0px" y="0px"
	 viewBox="0 0 60 60" style="enable-background:new 0 0 60 60;" xml:space="preserve">
<title>Artboard 3</title>
<g id="Natural">
	<path d="M30,60C13.4,60,0,46.6,0,30S13.4,0,30,0s30,13.4,30,30S46.6,60,30,60z M30,1.3C14.2,1.3,1.3,14.2,1.3,30S14.2,58.7,30,58.7
		S58.7,45.8,58.7,30c0,0,0,0,0,0C58.7,14.2,45.8,1.3,30,1.3z"/>
	<path d="M16.6,44.6h-0.8V37h1.1l1.8,5.5V37h0.8v7.6h-0.9l-2-6.2V44.6z"/>
	<path d="M21.2,43l-0.3,1.5h-0.8l1.5-7.6h1.2l1.5,7.6h-0.9l-0.3-1.5L21.2,43z M21.3,42.3H23l-0.9-4.4L21.3,42.3z"/>
	<path d="M25.6,44.6v-6.9h-1.4V37h3.6v0.8h-1.4v6.8L25.6,44.6z"/>
	<path d="M29.2,42.8c0,0.7,0.3,1.1,0.9,1.1s0.9-0.4,0.9-1.1V37h0.8v5.8c0,1.2-0.5,1.9-1.7,1.9s-1.7-0.8-1.7-1.9V37h0.8L29.2,42.8z"
		/>
	<path d="M34.3,37c1.2,0,1.7,0.6,1.7,1.7v0.6c0,0.8-0.3,1.4-1,1.6c0.7,0.2,1,0.8,1,1.6v1.2c0,0.3,0,0.6,0.2,0.9h-0.9
		c-0.1-0.3-0.2-0.6-0.1-0.9v-1.2c0-0.9-0.4-1.1-1.1-1.1h-0.6v3.2h-0.8V37H34.3z M34.1,40.6c0.7,0,1.1-0.2,1.1-1v-0.7
		c0-0.7-0.2-1-0.9-1h-0.8v2.8L34.1,40.6z"/>
	<path d="M37.8,43l-0.3,1.5h-0.8l1.5-7.6h1.2l1.5,7.6H40l-0.3-1.5L37.8,43z M37.9,42.3h1.7l-0.9-4.4L37.9,42.3z"/>
	<path d="M41.5,44.6V37h0.8v6.8h2.2v0.8L41.5,44.6z"/>
	<path d="M36.7,19.2c-0.3-0.2-0.3-0.4,0-0.6c0.8-0.6,1.2-1.5,1.2-2.5c0-1.8-1.4-3.3-3.3-3.4c-0.4,0-0.8,0.1-1.2,0.2
		c-0.1,0-0.2,0.1-0.3,0.1c-0.1,0-0.2-0.1-0.2-0.4c-0.2-1.6-1.6-2.8-3.2-2.8l0,0c-1.6,0-3,1.2-3.2,2.8c0,0.3-0.1,0.4-0.2,0.4
		c-0.1,0-0.2,0-0.3-0.1c-0.4-0.2-0.8-0.2-1.2-0.2c-1.2,0-2.2,0.6-2.8,1.6c-0.8,1.4-0.5,3.2,0.8,4.3c0.3,0.3,0.3,0.4,0,0.6
		c-1.3,1-1.6,2.8-0.8,4.2c0.6,1,1.7,1.6,2.8,1.6c0.4,0,0.8-0.1,1.2-0.2c0.1,0,0.2-0.1,0.3-0.1c0.1,0,0.2,0.1,0.2,0.3
		c0.2,1.8,1.9,3.1,3.7,2.9c1.5-0.2,2.7-1.4,2.9-2.9c0-0.2,0.1-0.3,0.2-0.3c0.1,0,0.2,0,0.2,0c0.4,0.2,0.8,0.2,1.3,0.2
		c1.2,0,2.2-0.6,2.8-1.6C38.3,22,38,20.2,36.7,19.2z M29.7,22L29.7,22c-1.7,0-3.1-1.3-3.1-3l0,0c0-1.7,1.3-3,3-3c1.7,0,3,1.3,3,3
		C32.7,20.6,31.4,22,29.7,22z"/>
	<path d="M29,31.8c0,0.2-0.1,0.4-0.1,0.6l-0.1,0.2c-0.3,1.1-0.3,1.3-0.5,1.5l0,0c-0.2,0.1-0.4,0.2-0.6,0.2c-0.1,0-0.3,0-0.4,0
		c-0.5,0-0.9-0.1-1.3-0.2c-1-0.3-2-0.9-2.7-1.7c-1.3-1.1-2.1-2.7-2.2-4.4v-0.7h0.7c3.3-0.1,5.5,0.5,6.6,1.8
		C29,29.8,29.2,30.8,29,31.8z"/>
	<path d="M39.7,26.8l-0.4,0.8c-1.8,4.1-3.1,6.1-6.7,7.3c-0.1,0-0.2,0-0.3,0c-0.8-0.1-1.5-0.7-1.9-1.4l0,0c-0.2-0.7,0-1.5,0.4-2
		c0.7-1.3,1.7-2.4,2.9-3.2c1.5-1,3.2-2,5.2-1.6L39.7,26.8z"/>
</g>
</svg>
