<svg id="Layer_1" data-name="Layer 1" xmlns="http://www.w3.org/2000/svg" viewBox="0 0 748 710"><defs><style>.cls-1{font-size:100.06px;font-family:Europa-RegularItalic, Europa-Regular;font-style:italic;}</style></defs><path d="M548.31,284.77a51.14,51.14,0,0,1-33.13,15.05c-16.28-15-34.89-26.14-53-32.16a92.74,92.74,0,0,0-29.94-5.12v0a51.2,51.2,0,0,0,1-10.1,54.72,54.72,0,0,0-3.48-19.12c.14-.19.32-.37.49-.56,14.75-16.92,46.8-28.14,81.29-28.14a53,53,0,0,1,6.59.4l.94.13a7.53,7.53,0,0,1,.85.14c.56.08,1.13.16,1.69.29.08,0,.13,0,.21,0a50.86,50.86,0,0,1,25.25,13,46,46,0,0,1,1.24,66.2M518.77,360.2l-.24.64c-.16.38-.29.75-.46,1.13s-.34.83-.53,1.23c0,.1-.08.19-.13.29a47.38,47.38,0,0,1-10.58,14.84c-14.35,13.63-35.35,17.32-53.32,10.87-.1-.06-.24-.08-.34-.14-.49-.18-1-.34-1.45-.56a7.22,7.22,0,0,1-.67-.27c-.43-.16-.83-.34-1.23-.53s-.59-.27-.86-.38-.72-.37-1.07-.53-.67-.35-1-.51l-.91-.51c-.4-.21-.75-.43-1.15-.64-.24-.16-.51-.32-.77-.48-.43-.27-.86-.54-1.26-.81a7.36,7.36,0,0,1-.62-.4c-.53-.37-1-.72-1.55-1.1a2.49,2.49,0,0,0-.32-.21l-1.85-1.45v0c-.3-21.48-5.17-41.72-13.39-58.08a93.5,93.5,0,0,0-7.95-13.12,72.57,72.57,0,0,0-9.48-10.8,57.31,57.31,0,0,0,20-22.35c23.11-2.47,54.58,11.16,79.24,34.57a46.78,46.78,0,0,1,4.28,4.65c.22.27.43.51.65.81a7.16,7.16,0,0,1,.42.59,14.45,14.45,0,0,1,1.05,1.42s0,0,0,.08a45.57,45.57,0,0,1,5.49,41.77m-95,29.75h0c-.08.51-.16,1-.27,1.47-.05.32-.11.64-.16.94s-.13.51-.19.75c-.13.56-.27,1.12-.4,1.66a.34.34,0,0,1,0,.08,46.69,46.69,0,0,1-13.09,21.74,50.16,50.16,0,0,1-13.47,9.11c-.35.18-.72.34-1.07.48l-.67.32a52.67,52.67,0,0,1-20.32,4.07c-18.64,0-35-9.69-43.68-24.15l-.37-.62a5.21,5.21,0,0,1-.38-.7c-.24-.42-.45-.83-.67-1.23-.1-.19-.21-.37-.29-.56l-.7-1.42a1.78,1.78,0,0,0-.21-.48c-.24-.54-.46-1.07-.67-1.58l-.13-.4c-.25-.59-.46-1.15-.65-1.74,0-.11-.08-.22-.1-.3-.22-.64-.41-1.26-.59-1.9,0-.05,0-.13-.06-.19a42.41,42.41,0,0,1-1.6-9c24.9-24.28,39.57-54,39.28-78.67.83.14,1.66.27,2.46.38a4,4,0,0,0,.46,0,58.79,58.79,0,0,0,7.84.54,63.66,63.66,0,0,0,7.55-.49c.22,0,.43-.08.65-.1,1.44-.19,2.86-.43,4.25-.73a.66.66,0,0,0,.25-.05c.75-.16,1.5-.32,2.25-.51l.48-.13c.69-.16,1.42-.38,2.11-.59.19,0,.4-.11.59-.16.62-.22,1.29-.4,1.9-.62,18.18,13.79,30.26,44.53,30.26,77.63a48.62,48.62,0,0,1-.53,7.07M307.36,382.5a8.3,8.3,0,0,1-.77.59l-.72.49c-.46.29-.92.61-1.4.91l-.21.13a52.52,52.52,0,0,1-55.08-.08.1.1,0,0,0-.06,0l-1.58-1c-.16-.11-.34-.24-.53-.35s-.67-.51-1-.75l-1-.78a3.7,3.7,0,0,1-.29-.24c-1.18-.93-2.33-1.9-3.43-2.94a47.91,47.91,0,0,1-9.16-12,45.82,45.82,0,0,1,6.7-52.93c35.72-.49,68.23-11.65,86.38-29.3v0a58.65,58.65,0,0,0,6.91,7.87,59.62,59.62,0,0,0,16.55,11c.05,0,.08,0,.13.06a48.89,48.89,0,0,1-.19,12.23c-2.62,20-15.93,43.68-36.25,63a46.38,46.38,0,0,1-5,4.09M200.93,286.11a46.34,46.34,0,0,1-14.44-28.79.12.12,0,0,0,0-.08c-.06-.67-.11-1.34-.14-2,0-.14,0-.27-.05-.38,0-.75-.06-1.47-.06-2.19v-.25c0-.67,0-1.33.06-2V250c0-.24.05-.51.05-.78,0-.51.08-1,.14-1.5v-.19a46,46,0,0,1,8.89-22.6l.08-.08c.4-.56.83-1.12,1.28-1.66a1,1,0,0,1,.16-.18c.4-.51.86-1,1.29-1.53a1.39,1.39,0,0,0,.21-.21c.43-.49.89-1,1.34-1.42.13-.14.27-.24.38-.38.4-.4.8-.8,1.2-1.18.19-.16.35-.29.48-.42l1.21-1.08c.24-.18.45-.34.67-.53s.72-.59,1.09-.88l.75-.57c.35-.27.7-.53,1.08-.8s.56-.38.83-.56.69-.46,1.07-.7a9,9,0,0,1,.91-.53c.35-.25.67-.43,1-.65s.62-.35.94-.51.69-.4,1.07-.59.62-.29.94-.45.72-.38,1.12-.56l.91-.4c.4-.19.81-.35,1.23-.54l.89-.32c.43-.19.85-.35,1.28-.51.27-.08.54-.16.81-.27.48-.13.93-.32,1.44-.45a6.19,6.19,0,0,1,.67-.19c.54-.16,1.05-.32,1.58-.46l.64-.13c.57-.16,1.13-.29,1.69-.4l.46-.08c.64-.14,1.25-.24,1.92-.35a2,2,0,0,1,.24-.05c.73-.11,1.45-.22,2.17-.27a.1.1,0,0,1,.08,0c.75-.08,1.53-.16,2.31-.21h.05A155.18,155.18,0,0,0,276,233.28l.48.21c.46.19.91.4,1.37.56s1,.43,1.52.62a1.62,1.62,0,0,1,.4.19c12.38,4.84,24.64,7.41,35.91,7.28a53.38,53.38,0,0,0-.93,10.07,54,54,0,0,0,3.48,19.14v0c-14.52,17.24-46.92,28.7-81.78,28.7a51.27,51.27,0,0,1-35.53-14m40.24-159.78a51.84,51.84,0,0,1,41.29-13.63.18.18,0,0,0,.11,0c.64.06,1.31.17,2,.27h.05a47.92,47.92,0,0,1,5.12,1.05c.34.08.69.16,1,.26s.54.17.83.25c.45.13.91.26,1.34.4l.72.24c.48.16,1,.32,1.45.51l.61.24c.51.19,1,.4,1.5.61l.59.25,1.53.72a2.39,2.39,0,0,1,.48.24c.56.27,1.1.53,1.63.83.14,0,.24.13.38.19.59.32,1.18.67,1.77,1,.05.06.13.08.18.14a43.51,43.51,0,0,1,5.73,4.07.07.07,0,0,1,.06,0,141.39,141.39,0,0,0,8.24,46.25c.09.24.17.51.27.75s.27.69.4,1c.22.59.46,1.21.7,1.8v0c5.28,13,12.48,24,21.15,32.11v0a57.21,57.21,0,0,0-19.94,22.36,61.24,61.24,0,0,1-6.7.26c-19.55-.37-43.43-10.6-64.1-27.44-2.87-2.36-5.71-4.82-8.44-7.42l-.29-.3c-.49-.45-1-.93-1.42-1.39l-.54-.61c-.37-.38-.72-.78-1.07-1.18-.19-.22-.37-.46-.56-.67-.32-.38-.62-.78-.94-1.15s-.37-.51-.56-.75-.56-.75-.83-1.13-.35-.53-.54-.8-.51-.72-.75-1.1-.34-.56-.5-.86a10.42,10.42,0,0,1-.65-1.09c-.18-.3-.35-.62-.51-.91s-.37-.7-.53-1.05-.35-.67-.51-1-.3-.64-.46-1l-.48-1.12a6,6,0,0,1-.29-.78c-.19-.43-.38-.88-.54-1.34,0-.08,0-.16-.08-.27a46,46,0,0,1,12-49m82.53-5.2c0-.56,0-1.12.05-1.66,0-.32.06-.61.08-.91,0-.48.06-1,.11-1.44,0-.3.08-.62.11-.91.08-.46.1-.94.18-1.4l.17-.93c.08-.43.16-.89.24-1.32l.24-1c.08-.4.18-.86.29-1.26s.19-.64.27-1,.21-.81.35-1.21.21-.67.32-1,.27-.75.4-1.1.27-.69.4-1,.27-.67.4-1l.49-1.07c.13-.27.24-.53.37-.8.21-.43.4-.86.62-1.26,0-.11.13-.21.18-.32,8.22-15.67,25.31-26.48,45-26.48a51.37,51.37,0,0,1,38,16.52.57.57,0,0,1,.11.16,16.68,16.68,0,0,1,1.2,1.34l.24.32c.35.43.7.83,1,1.28.13.16.24.35.37.51.27.38.56.75.83,1.13s.54.8.81,1.2c.1.19.24.35.34.54.41.61.78,1.2,1.16,1.84l.1.19.94,1.74c.05.08.08.19.13.27.3.56.57,1.15.83,1.71a2.87,2.87,0,0,0,.14.3q.39.89.75,1.77a2.58,2.58,0,0,0,.08.26c.24.62.48,1.24.69,1.85a2,2,0,0,1,.08.22c.22.64.41,1.31.59,2,0,0,0,.08.06.13a45.17,45.17,0,0,1,1.6,9,147.69,147.69,0,0,0-10.9,11.76c-18.23,21.71-28.62,46.11-28.38,66.91h0A63,63,0,0,0,354,199.4a47,47,0,0,1-6.48-5.89c-12.19-13-20.65-34.22-23.06-57.78a133.9,133.9,0,0,1-.72-13.95v-.65M342.07,282.6a42.1,42.1,0,0,1-9.4-13.15,4.54,4.54,0,0,1-.32-.72c-.14-.27-.22-.51-.32-.75a40.22,40.22,0,0,1-3.14-15.67c0-14.21,7.37-26.83,18.67-34.59v0a1.2,1.2,0,0,0,.27-.19c.85-.56,1.68-1.09,2.57-1.6.18-.11.37-.19.53-.3.83-.48,1.66-.91,2.52-1.31.21-.13.45-.24.67-.35.75-.35,1.47-.64,2.22-1l.86-.35c.77-.29,1.58-.56,2.41-.83l1.18-.37c.75-.22,1.49-.41,2.24-.59l1.45-.33,1.37-.24a46.43,46.43,0,0,1,40,11.79,42.82,42.82,0,0,1,8.68,11.56c.08.14.11.27.19.41.19.4.4.8.59,1.2s.27.62.4.94l.24.61a40.31,40.31,0,0,1,3.11,15.56c0,14.22-7.37,26.83-18.69,34.62-.14.11-.33.22-.49.32s-.53.38-.8.54-.59.35-.88.54a6.19,6.19,0,0,1-.81.48c-.29.16-.56.35-.88.51s-.56.29-.86.45l-.83.43c-.32.16-.64.32-1,.46l-.75.34c-.4.16-.78.35-1.15.49-.19.1-.4.16-.59.24-.43.18-.89.34-1.31.51l-.49.16c-.45.18-1,.34-1.44.5l-.32.08c-.57.19-1.1.33-1.64.49a1.6,1.6,0,0,0-.21.05c-.56.13-1.15.3-1.71.4-.06,0-.11,0-.19.06-.56.13-1.15.24-1.74.34l-.19,0c-.35.05-.72.13-1.07.19v0a46.45,46.45,0,0,1-39-11.94m93.61-156.33c.94-.88,1.9-1.71,2.87-2.51l.88-.73a5.45,5.45,0,0,0,.56-.42c.51-.35,1-.73,1.48-1.08,0,0,.08,0,.1,0A52.44,52.44,0,0,1,502.89,123s0,0,.06.06c.56.43,1.12.91,1.68,1.36l.24.22c.65.53,1.26,1.1,1.88,1.68a45.93,45.93,0,0,1,2.46,64.89c-24.55.32-47.58,5.7-65.5,14.75a99.41,99.41,0,0,0-11.38,6.72,77.11,77.11,0,0,0-9.5,7.79,56.67,56.67,0,0,0-10.47-10.92,58.46,58.46,0,0,0-13.12-8,50.57,50.57,0,0,1-.22-8.11,2.58,2.58,0,0,0,0-.48,1.19,1.19,0,0,0,0-.32c1.5-20.67,15.15-45.93,36.6-66.28m140.23,123c0-.16,0-.32,0-.48-.06-.8-.11-1.58-.19-2.35-.05-.35-.08-.7-.11-1-.08-.59-.16-1.15-.24-1.74s-.13-.91-.21-1.37-.16-.85-.24-1.26c-.11-.58-.22-1.15-.35-1.71a7.38,7.38,0,0,1-.19-.78c-.16-.69-.35-1.39-.53-2.08,0,0,0-.06,0-.11-5.95-20.94-23.35-37.44-45.39-43.14,0,0,0,0-.11,0l-2.38-.56-.24-.05c15.82-23.73,12.69-55.38-8.89-75.89s-55.11-23.35-80-8.41c-.16-.72-.35-1.44-.56-2.17,0,0,0-.13,0-.18-.18-.65-.37-1.26-.59-1.9-.05-.16-.08-.3-.13-.46-.21-.62-.43-1.23-.64-1.85a4.16,4.16,0,0,1-.16-.45c-.24-.64-.49-1.23-.75-1.85-.06-.13-.11-.27-.16-.4-.27-.64-.54-1.26-.83-1.88a1.3,1.3,0,0,1-.14-.32l-1-1.92a.52.52,0,0,0-.11-.19c-.35-.67-.69-1.34-1.07-2a.09.09,0,0,1,0-.06c-9.85-17.27-28.14-29.45-49.48-31.7a63,63,0,0,0-7.18-.4,70,70,0,0,0-7.55.43c-.56.05-1.1.13-1.66.21l-1,.13c-.56.08-1.1.19-1.66.27-.3.05-.62.14-.94.19l-1.63.32-.94.21-1.61.41-.91.24c-.53.13-1.07.29-1.6.45-.3.08-.59.19-.86.27-.83.27-1.66.56-2.44.83-.51.19-1,.35-1.5.56a9.17,9.17,0,0,0-.91.38c-.51.18-1,.4-1.52.61a8.84,8.84,0,0,0-.83.38l-1.56.72c-.24.11-.51.24-.75.38-.53.26-1.07.53-1.58.8l-.67.37c-.56.3-1.09.59-1.63.91a3.16,3.16,0,0,1-.59.35c-.53.35-1.1.7-1.66,1l-.48.29c-.56.4-1.15.8-1.74,1.21a1.78,1.78,0,0,0-.32.24c-.65.43-1.26.88-1.88,1.36a.42.42,0,0,1-.16.11,61.05,61.05,0,0,0-22.28,34.09h0c-.75-.46-1.53-.91-2.31-1.34-.18-.11-.4-.19-.59-.3-.56-.32-1.15-.61-1.68-.88l-1-.46c-.48-.21-.93-.42-1.39-.64s-.75-.35-1.15-.51-.8-.34-1.2-.48-.86-.35-1.29-.51l-1.07-.4-1.42-.48-1-.32c-.51-.16-1.05-.32-1.56-.46l-.8-.24c-.59-.16-1.15-.32-1.71-.45a5.94,5.94,0,0,0-.62-.14c-.64-.16-1.29-.32-2-.45l-.26,0a67.08,67.08,0,0,0-53.64,12l0,0a55.64,55.64,0,0,0-5.36,4.55,58.1,58.1,0,0,0-4.71,5A59,59,0,0,0,212.87,168c0,.19,0,.35,0,.54.08.48.19,1,.27,1.5.05.32.11.61.16.94s.19.88.27,1.31l.24,1.12c.11.4.21.78.29,1.18s.22.83.35,1.23a7.37,7.37,0,0,0,.32,1.07,14.15,14.15,0,0,0,.4,1.37l.33,1c.18.48.34,1,.5,1.45l.35.86c.22.5.4,1,.62,1.55.13.24.21.48.35.72.24.59.51,1.13.77,1.69.08.19.16.37.27.59.32.64.67,1.31,1,1.93a2.38,2.38,0,0,0,.13.29c.83,1.5,1.74,3,2.71,4.47-28.9,6.16-50.26,30.63-50.26,59.63,0,.78,0,1.56.05,2.33v.41c0,.72.08,1.41.16,2.14,0,.21,0,.43.05.64.06.75.16,1.47.24,2.22a2.45,2.45,0,0,1,.06.43c.13.83.24,1.63.4,2.44a.18.18,0,0,1,0,.11c4.52,24.23,24.2,43.56,49.32,48.92v0a58.76,58.76,0,0,0,8.89,75.89c.72.7,1.45,1.34,2.17,2,.35.3.7.59,1,.86s.78.64,1.15,1,1,.75,1.48,1.13c.27.18.51.37.75.53.61.46,1.2.86,1.82,1.29a4,4,0,0,1,.37.24,67.59,67.59,0,0,0,71.23,1.42v0a61.41,61.41,0,0,0,26.62,37.11c.05,0,.1.08.16.11.61.37,1.2.75,1.82,1.12.21.14.45.27.67.4.45.27.91.51,1.36.75s.81.46,1.18.65l.91.48c.59.27,1.15.56,1.72.83a3,3,0,0,1,.45.21,67.09,67.09,0,0,0,20.78,5.65v0a70.57,70.57,0,0,0,7.15.37,68.56,68.56,0,0,0,7.07-.37v0a64.6,64.6,0,0,0,10.52-1.93,2.64,2.64,0,0,0,.46-.13c.61-.16,1.23-.35,1.82-.51s.94-.29,1.39-.45.59-.19.88-.3c20.33-7.09,35.89-23.67,40.71-44a67.63,67.63,0,0,0,49.05,7.88c.08,0,.16,0,.24-.06.7-.16,1.4-.32,2.09-.51a7.51,7.51,0,0,0,.78-.21c.51-.13,1-.27,1.5-.43s.88-.24,1.34-.4l1-.32c.62-.22,1.21-.4,1.79-.62a5.09,5.09,0,0,1,.49-.18l2.25-.89a.07.07,0,0,1,.05,0,64.36,64.36,0,0,0,14.06-8.14l0,0a65.77,65.77,0,0,0,5.36-4.55,62.9,62.9,0,0,0,4.71-5l0,0a59.91,59.91,0,0,0,4.71-6.32.07.07,0,0,0,0,0l1.2-1.93c.13-.27.29-.51.43-.78s.48-.83.69-1.23.57-1,.84-1.58l.24-.48a58.67,58.67,0,0,0-4-58.56h0A64.79,64.79,0,0,0,564,287.71a58.72,58.72,0,0,0,12-35.42c0-1,0-2-.08-3"/><path d="M374,692.27C178.06,692.27,18.68,541,18.68,355S178.06,17.76,374,17.76,729.32,169,729.32,355,569.9,692.27,374,692.27M374,0C167.77,0,0,159.24,0,355S167.77,710,374,710,748,550.76,748,355,580.23,0,374,0"/><text class="cls-1" transform="translate(210.36 552.11)">Natural</text></svg>