<?xml version="1.0" encoding="utf-8"?>
<!-- Generator: Adobe Illustrator 22.0.1, SVG Export Plug-In . SVG Version: 6.00 Build 0)  -->
<svg version="1.1" id="Layer_1" xmlns="http://www.w3.org/2000/svg" xmlns:xlink="http://www.w3.org/1999/xlink" x="0px" y="0px"
	 viewBox="0 0 306 224" style="enable-background:new 0 0 306 224;" xml:space="preserve">
<style type="text/css">
	.st0{fill:#FD7E96;}
</style>
<g>
	<path class="st0" d="M236.6,169.6c7.6,7.6,7.6,20,0,27.6c-3.7,3.7-8.6,5.7-13.8,5.7c-5.2,0-10.1-2-13.8-5.7l-56.6-56.6l-56.6,56.6
		c-3.7,3.7-8.6,5.7-13.8,5.7c-5.2,0-10.1-2-13.8-5.7c-7.6-7.6-7.6-20,0-27.6l56.6-56.6L68.4,56.4c-7.6-7.6-7.6-20,0-27.6
		c3.7-3.7,8.6-5.7,13.8-5.7c5.2,0,10.1,2,13.8,5.7l56.6,56.6l56.6-56.6c3.7-3.7,8.6-5.7,13.8-5.7c5.2,0,10.1,2,13.8,5.7
		c7.6,7.6,7.6,20,0,27.6L180.1,113L236.6,169.6z"/>
</g>
</svg>
