<?xml version="1.0" encoding="utf-8"?>
<svg width="20px" height="20px" version="1.1" id="Layer_1" xmlns="http://www.w3.org/2000/svg" xmlns:xlink="http://www.w3.org/1999/xlink" x="0px" y="0px"
	 viewBox="0 0 21 21" style="enable-background:new 0 0 21 21;" xml:space="preserve">
<g>
	<path d="M16.2,5.7l-8,8.5l-3.7-3.4c-0.3-0.2-0.7-0.2-0.9,0c-0.2,0.3-0.2,0.7,0,0.9l4.2,3.9c0.1,0.1,0.3,0.2,0.4,0.2
		c0.2,0,0.3-0.1,0.5-0.2l8.4-8.9c0.2-0.3,0.2-0.7,0-0.9C16.8,5.4,16.4,5.4,16.2,5.7z M16,0.6H4.6c-2.4,0-4.3,1.9-4.3,4.3v11.4
		c0,2.4,1.9,4.3,4.3,4.3H16c2.4,0,4.3-1.9,4.3-4.3V4.9C20.3,2.5,18.4,0.6,16,0.6z M19,16.3c0,1.6-1.3,3-3,3H4.6c-1.6,0-3-1.3-3-3
		V4.9c0-1.6,1.3-3,3-3H16c1.6,0,3,1.3,3,3V16.3z"/>
</g>
</svg>
