<?xml version="1.0" encoding="utf-8"?>
<!-- Generator: Adobe Illustrator 23.1.1, SVG Export Plug-In . SVG Version: 6.00 Build 0)  -->
<svg version="1.1" id="vegan" xmlns="http://www.w3.org/2000/svg" xmlns:xlink="http://www.w3.org/1999/xlink" x="0px" y="0px"
	 viewBox="0 0 50 50" style="enable-background:new 0 0 50 50;" xml:space="preserve">
<title>Artboard 1</title>
<path d="M25,50C11.2,50,0,38.8,0,25S11.2,0,25,0s25,11.2,25,25S38.8,50,25,50z M25,1.1C11.8,1.1,1.1,11.8,1.1,25S11.8,48.9,25,48.9
	S48.9,38.2,48.9,25S38.2,1.1,25,1.1C25,1.1,25,1.1,25,1.1z"/>
<path d="M16.9,30.8l1,5.5l1-5.5h0.7l-1.2,6.4h-1l-1.1-6.4L16.9,30.8z"/>
<path d="M22.4,33.6v0.6h-1.6v2.3h1.9v0.6h-2.6v-6.4h2.6v0.6h-1.9v2.2L22.4,33.6z"/>
<path d="M26.2,32.3v0.5h-0.7v-0.6c0-0.6-0.2-0.9-0.7-0.9s-0.8,0.4-0.8,1v3.4c0,0.6,0.2,0.9,0.7,0.9s0.7-0.4,0.7-0.9v-1.3h-0.7v-0.6
	H26v1.9c0,1-0.5,1.6-1.4,1.6s-1.4-0.6-1.4-1.6v-3.3c0-1,0.4-1.6,1.4-1.6c0.7-0.1,1.4,0.3,1.6,1.1C26.2,32,26.2,32.2,26.2,32.3z"/>
<path d="M27.6,35.9l-0.2,1.3h-0.7l1.3-6.4h1l1.2,6.4h-0.7l-0.2-1.3H27.6z M27.7,35.3h1.4l-0.7-3.7L27.7,35.3z"/>
<path d="M31.3,37.2h-0.6v-6.4h0.9l1.5,4.6v-4.6h0.6v6.4H33L31.3,32V37.2z"/>
<path d="M36.5,15c0,0.4-0.1,0.7-0.1,1.1h-9.2c-0.2,0-0.4,0.2-0.5,0.4l-1.5,6.1l-2.3-9.3c-0.1-0.2-0.3-0.4-0.5-0.4
	c-0.2,0-0.4,0.1-0.5,0.3l-2.1,6.1l-1.1-2.8c-0.1-0.2-0.3-0.3-0.5-0.3h-4.3c-0.9-3.7,2.2-7.4,6.5-7.4c1.7,0,3.2,0.7,4.3,2
	c0.4,0.5,0.6,0.5,1.1,0c1.8-1.9,4.6-2.5,7-1.5C35.1,10.3,36.5,12.5,36.5,15z"/>
<path d="M36.1,17.1c-0.1,0.3-0.3,0.6-0.4,0.9c-1.1,1.8-2.4,3.5-3.9,5c-1.9,2-3.9,3.8-6.1,5.4c-0.3,0.2-0.5,0.4-0.9,0.1
	c-3.3-2.5-6.3-5.4-8.9-8.7C15.2,19,14.6,18,14.2,17h3.6l1.5,3.8c0.1,0.2,0.3,0.3,0.5,0.3c0.2,0,0.4-0.2,0.5-0.4l2-5.7l2.4,9.7
	c0.1,0.2,0.3,0.4,0.6,0.3c0,0,0,0,0,0c0.2,0,0.3-0.1,0.3-0.3l2-7.7L36.1,17.1z"/>
</svg>
