<svg id="Layer_1" data-name="Layer 1" xmlns="http://www.w3.org/2000/svg" viewBox="0 0 748 710"><defs><style>.cls-1{font-size:100.06px;font-family:Europa-RegularItalic, Europa-Regular;font-style:italic;}.cls-2{letter-spacing:-0.06em;}</style></defs><path d="M531,246.45c-18.53,29.54-58.89,39.28-90,21.72-.91-.52-1.78-1.11-2.64-1.68,17.91-28.35,42.78-62.52,73-90.85a6,6,0,0,0,.05-8.78,6.76,6.76,0,0,0-9.25-.05c-30.84,28.89-56,63-74.17,91.66-20.58-19.69-25.49-50.8-9.89-75.72,21.59-34.42,89.39-48.51,108.93-51.94C533.28,148.75,552.6,212,531,246.45M312.48,349.86c-14-30.65-34.12-67.7-60.64-100.25a6.81,6.81,0,0,0-9.18-1.11,6,6,0,0,0-1.18,8.71c26,31.88,45.84,68.91,59.63,99.28-.94.45-1.87.94-2.84,1.34-33.3,13.47-71.94-1.29-86.15-32.89-16.56-36.84,11.47-97.14,20.1-114.14,18.9,5.85,84.14,28.4,100.69,65.24a59,59,0,0,1,.52,47.71A62.24,62.24,0,0,1,312.48,349.86Zm218.08-232.2c-3.87.52-95.26,13.45-123.65,58.75-19.35,30.86-12.46,69.67,14.28,93.11-6.44,10.64-11.77,20.16-15.94,28S393.11,319.81,387.69,331l-5.56,11.69c-12.23,26.5-25,59.41-32.86,94.1-5.4-13.86-26-62.39-31.53-75.08a75,75,0,0,0,27.85-33.28,70.71,70.71,0,0,0-.64-57.21c-21.78-48.49-110.55-72.84-114.3-73.85a6.7,6.7,0,0,0-7.55,3.06c-1.85,3.28-44.78,80.95-23,129.43,8.51,18.95,24.35,32.84,43.05,40a82.4,82.4,0,0,0,60.25-.57c1-.4,1.86-.86,2.79-1.28,6.32,14.73,36.89,78.92,39.95,87.63a6.39,6.39,0,0,0,5.28,4.57,6.53,6.53,0,0,0,7.52-5.11c6.91-39.77,22-78.78,36.05-109l5.4-11.3c5.68-11.55,11-21.37,15.2-29s9.52-17.45,16.19-28.5c.86.52,1.67,1.11,2.56,1.63A82.19,82.19,0,0,0,494,287c19.56-4.72,37.2-16.49,48.3-34.2,28.38-45.3-3.3-127.68-4.66-131.16a6.56,6.56,0,0,0-7.06-4"/><path d="M374,692.27C178.07,692.27,18.68,541,18.68,355S178.07,17.76,374,17.76,729.32,169,729.32,355,569.9,692.27,374,692.27M374,0C167.77,0,0,159.24,0,355S167.77,710,374,710,748,550.76,748,355,580.23,0,374,0"/><text class="cls-1" transform="translate(241.98 552.11)"><tspan class="cls-2">V</tspan><tspan x="53.23" y="0">egan</tspan></text></svg>